<svg width="449" height="49" viewBox="0 0 449 49" fill="none" xmlns="http://www.w3.org/2000/svg">
<mask id="path-1-outside-1_2_4" maskUnits="userSpaceOnUse" x="0.22728" y="0" width="449" height="49" fill="black">
<rect fill="white" x="0.22728" width="449" height="49"/>
<path d="M5.45455 2.09091V37H1.22728V2.09091H5.45455Z"/>
<path d="M17.4077 21.25V37H13.3849V10.8182H17.2713V14.9091H17.6122C18.2259 13.5795 19.1577 12.5114 20.4077 11.7045C21.6577 10.8864 23.2713 10.4773 25.2486 10.4773C27.0213 10.4773 28.5725 10.8409 29.902 11.5682C31.2315 12.2841 32.2656 13.375 33.0043 14.8409C33.7429 16.2955 34.1122 18.1364 34.1122 20.3636V37H30.0895V20.6364C30.0895 18.5795 29.5554 16.9773 28.4872 15.8295C27.419 14.6705 25.9531 14.0909 24.0895 14.0909C22.8054 14.0909 21.6577 14.3693 20.6463 14.9261C19.6463 15.483 18.8565 16.2955 18.277 17.3636C17.6975 18.4318 17.4077 19.7273 17.4077 21.25Z"/>
<path d="M60.0085 16.6818L56.3949 17.7045C56.1676 17.1023 55.8324 16.517 55.3892 15.9489C54.9574 15.3693 54.3665 14.892 53.6165 14.517C52.8665 14.142 51.9063 13.9545 50.7358 13.9545C49.1335 13.9545 47.7983 14.3239 46.7301 15.0625C45.6733 15.7898 45.1449 16.7159 45.1449 17.8409C45.1449 18.8409 45.5085 19.6307 46.2358 20.2102C46.9631 20.7898 48.0994 21.2727 49.6449 21.6591L53.5313 22.6136C55.8722 23.1818 57.6165 24.0511 58.7642 25.2216C59.9119 26.3807 60.4858 27.875 60.4858 29.7045C60.4858 31.2045 60.054 32.5455 59.1903 33.7273C58.3381 34.9091 57.1449 35.8409 55.6108 36.5227C54.0767 37.2045 52.2926 37.5455 50.2585 37.5455C47.5881 37.5455 45.3778 36.9659 43.6278 35.8068C41.8778 34.6477 40.7699 32.9545 40.304 30.7273L44.1222 29.7727C44.4858 31.1818 45.1733 32.2386 46.1847 32.9432C47.2074 33.6477 48.5426 34 50.1903 34C52.0653 34 53.554 33.6023 54.6563 32.8068C55.7699 32 56.3267 31.0341 56.3267 29.9091C56.3267 29 56.0085 28.2386 55.3722 27.625C54.7358 27 53.7585 26.5341 52.4403 26.2273L48.0767 25.2045C45.679 24.6364 43.9176 23.7557 42.7926 22.5625C41.679 21.358 41.1222 19.8523 41.1222 18.0455C41.1222 16.5682 41.5369 15.2614 42.3665 14.125C43.2074 12.9886 44.3494 12.0966 45.7926 11.4489C47.2472 10.8011 48.8949 10.4773 50.7358 10.4773C53.3267 10.4773 55.3608 11.0455 56.8381 12.1818C58.3267 13.3182 59.3835 14.8182 60.0085 16.6818Z"/>
<path d="M83.0412 26.2955V10.8182H87.0639V37H83.0412V32.5682H82.7685C82.1548 33.8977 81.2003 35.0284 79.9048 35.9602C78.6094 36.8807 76.973 37.3409 74.9957 37.3409C73.3594 37.3409 71.9048 36.983 70.6321 36.267C69.3594 35.5398 68.3594 34.4489 67.6321 32.9943C66.9048 31.5284 66.5412 29.6818 66.5412 27.4545V10.8182H70.5639V27.1818C70.5639 29.0909 71.098 30.6136 72.1662 31.75C73.2457 32.8864 74.6207 33.4545 76.2912 33.4545C77.2912 33.4545 78.3082 33.1989 79.3423 32.6875C80.3878 32.1761 81.2628 31.392 81.9673 30.3352C82.6832 29.2784 83.0412 27.9318 83.0412 26.2955Z"/>
<path d="M94.4318 37V10.8182H98.3182V14.7727H98.5909C99.0682 13.4773 99.9318 12.4261 101.182 11.6193C102.432 10.8125 103.841 10.4091 105.409 10.4091C105.705 10.4091 106.074 10.4148 106.517 10.4261C106.96 10.4375 107.295 10.4545 107.523 10.4773V14.5682C107.386 14.5341 107.074 14.483 106.585 14.4148C106.108 14.3352 105.602 14.2955 105.068 14.2955C103.795 14.2955 102.659 14.5625 101.659 15.0966C100.67 15.6193 99.8864 16.3466 99.3068 17.2784C98.7386 18.1989 98.4546 19.25 98.4546 20.4318V37H94.4318Z"/>
<path d="M122.472 37.5455C119.949 37.5455 117.773 36.9886 115.943 35.875C114.125 34.75 112.722 33.1818 111.733 31.1705C110.756 29.1477 110.267 26.7955 110.267 24.1136C110.267 21.4318 110.756 19.0682 111.733 17.0227C112.722 14.9659 114.097 13.3636 115.858 12.2159C117.631 11.0568 119.699 10.4773 122.063 10.4773C123.426 10.4773 124.773 10.7045 126.102 11.1591C127.432 11.6136 128.642 12.3523 129.733 13.375C130.824 14.3864 131.693 15.7273 132.341 17.3977C132.989 19.0682 133.312 21.125 133.312 23.5682V25.2727H113.131V21.7955H129.222C129.222 20.3182 128.926 19 128.335 17.8409C127.756 16.6818 126.926 15.767 125.847 15.0966C124.778 14.4261 123.517 14.0909 122.063 14.0909C120.46 14.0909 119.074 14.4886 117.903 15.2841C116.744 16.0682 115.852 17.0909 115.227 18.3523C114.602 19.6136 114.29 20.9659 114.29 22.4091V24.7273C114.29 26.7045 114.631 28.3807 115.313 29.7557C116.006 31.1193 116.966 32.1591 118.193 32.875C119.42 33.5795 120.847 33.9318 122.472 33.9318C123.528 33.9318 124.483 33.7841 125.335 33.4886C126.199 33.1818 126.943 32.7273 127.568 32.125C128.193 31.5114 128.676 30.75 129.017 29.8409L132.903 30.9318C132.494 32.25 131.807 33.4091 130.841 34.4091C129.875 35.3977 128.682 36.1705 127.261 36.7273C125.841 37.2727 124.244 37.5455 122.472 37.5455Z"/>
<path d="M151.568 5.84091V2.09091H177.75V5.84091H166.773V37H162.545V5.84091H151.568Z"/>
<path d="M190.909 37.5455C188.386 37.5455 186.21 36.9886 184.381 35.875C182.562 34.75 181.159 33.1818 180.17 31.1705C179.193 29.1477 178.705 26.7955 178.705 24.1136C178.705 21.4318 179.193 19.0682 180.17 17.0227C181.159 14.9659 182.534 13.3636 184.295 12.2159C186.068 11.0568 188.136 10.4773 190.5 10.4773C191.864 10.4773 193.21 10.7045 194.54 11.1591C195.869 11.6136 197.08 12.3523 198.17 13.375C199.261 14.3864 200.131 15.7273 200.778 17.3977C201.426 19.0682 201.75 21.125 201.75 23.5682V25.2727H181.568V21.7955H197.659C197.659 20.3182 197.364 19 196.773 17.8409C196.193 16.6818 195.364 15.767 194.284 15.0966C193.216 14.4261 191.955 14.0909 190.5 14.0909C188.898 14.0909 187.511 14.4886 186.341 15.2841C185.182 16.0682 184.29 17.0909 183.665 18.3523C183.04 19.6136 182.727 20.9659 182.727 22.4091V24.7273C182.727 26.7045 183.068 28.3807 183.75 29.7557C184.443 31.1193 185.403 32.1591 186.631 32.875C187.858 33.5795 189.284 33.9318 190.909 33.9318C191.966 33.9318 192.92 33.7841 193.773 33.4886C194.636 33.1818 195.381 32.7273 196.006 32.125C196.631 31.5114 197.114 30.75 197.455 29.8409L201.341 30.9318C200.932 32.25 200.244 33.4091 199.278 34.4091C198.313 35.3977 197.119 36.1705 195.699 36.7273C194.278 37.2727 192.682 37.5455 190.909 37.5455Z"/>
<path d="M218.506 37.5455C216.051 37.5455 213.938 36.9659 212.165 35.8068C210.392 34.6477 209.028 33.0511 208.074 31.017C207.119 28.983 206.642 26.6591 206.642 24.0455C206.642 21.3864 207.131 19.0398 208.108 17.0057C209.097 14.9602 210.472 13.3636 212.233 12.2159C214.006 11.0568 216.074 10.4773 218.438 10.4773C220.278 10.4773 221.938 10.8182 223.415 11.5C224.892 12.1818 226.102 13.1364 227.045 14.3636C227.989 15.5909 228.574 17.0227 228.801 18.6591H224.778C224.472 17.4659 223.79 16.4091 222.733 15.4886C221.688 14.5568 220.278 14.0909 218.506 14.0909C216.937 14.0909 215.562 14.5 214.381 15.3182C213.21 16.125 212.295 17.267 211.636 18.7443C210.989 20.2102 210.665 21.9318 210.665 23.9091C210.665 25.9318 210.983 27.6932 211.619 29.1932C212.267 30.6932 213.176 31.858 214.347 32.6875C215.528 33.517 216.915 33.9318 218.506 33.9318C219.551 33.9318 220.5 33.75 221.352 33.3864C222.205 33.0227 222.926 32.5 223.517 31.8182C224.108 31.1364 224.528 30.3182 224.778 29.3636H228.801C228.574 30.9091 228.011 32.3011 227.114 33.5398C226.227 34.767 225.051 35.7443 223.585 36.4716C222.131 37.1875 220.437 37.5455 218.506 37.5455Z"/>
<path d="M238.705 21.25V37H234.682V2.09091H238.705V14.9091H239.045C239.659 13.5568 240.58 12.483 241.807 11.6875C243.045 10.8807 244.693 10.4773 246.75 10.4773C248.534 10.4773 250.097 10.8352 251.438 11.5511C252.778 12.2557 253.818 13.3409 254.557 14.8068C255.307 16.2614 255.682 18.1136 255.682 20.3636V37H251.659V20.6364C251.659 18.5568 251.119 16.9489 250.04 15.8125C248.972 14.6648 247.489 14.0909 245.591 14.0909C244.273 14.0909 243.091 14.3693 242.045 14.9261C241.011 15.483 240.193 16.2955 239.591 17.3636C239 18.4318 238.705 19.7273 238.705 21.25Z"/>
<path d="M267.064 21.25V37H263.041V10.8182H266.928V14.9091H267.268C267.882 13.5795 268.814 12.5114 270.064 11.7045C271.314 10.8864 272.928 10.4773 274.905 10.4773C276.678 10.4773 278.229 10.8409 279.558 11.5682C280.888 12.2841 281.922 13.375 282.661 14.8409C283.399 16.2955 283.768 18.1364 283.768 20.3636V37H279.746V20.6364C279.746 18.5795 279.212 16.9773 278.143 15.8295C277.075 14.6705 275.609 14.0909 273.746 14.0909C272.462 14.0909 271.314 14.3693 270.303 14.9261C269.303 15.483 268.513 16.2955 267.933 17.3636C267.354 18.4318 267.064 19.7273 267.064 21.25Z"/>
<path d="M301.756 37.5455C299.392 37.5455 297.318 36.983 295.534 35.858C293.761 34.733 292.375 33.1591 291.375 31.1364C290.386 29.1136 289.892 26.75 289.892 24.0455C289.892 21.3182 290.386 18.9375 291.375 16.9034C292.375 14.8693 293.761 13.2898 295.534 12.1648C297.318 11.0398 299.392 10.4773 301.756 10.4773C304.119 10.4773 306.188 11.0398 307.96 12.1648C309.744 13.2898 311.131 14.8693 312.119 16.9034C313.119 18.9375 313.619 21.3182 313.619 24.0455C313.619 26.75 313.119 29.1136 312.119 31.1364C311.131 33.1591 309.744 34.733 307.96 35.858C306.188 36.983 304.119 37.5455 301.756 37.5455ZM301.756 33.9318C303.551 33.9318 305.028 33.4716 306.188 32.5511C307.347 31.6307 308.205 30.4205 308.761 28.9205C309.318 27.4205 309.597 25.7955 309.597 24.0455C309.597 22.2955 309.318 20.6648 308.761 19.1534C308.205 17.642 307.347 16.4205 306.188 15.4886C305.028 14.5568 303.551 14.0909 301.756 14.0909C299.96 14.0909 298.483 14.5568 297.324 15.4886C296.165 16.4205 295.307 17.642 294.75 19.1534C294.193 20.6648 293.915 22.2955 293.915 24.0455C293.915 25.7955 294.193 27.4205 294.75 28.9205C295.307 30.4205 296.165 31.6307 297.324 32.5511C298.483 33.4716 299.96 33.9318 301.756 33.9318Z"/>
<path d="M323.783 2.09091V37H319.76V2.09091H323.783Z"/>
<path d="M341.787 37.5455C339.423 37.5455 337.349 36.983 335.565 35.858C333.793 34.733 332.406 33.1591 331.406 31.1364C330.418 29.1136 329.923 26.75 329.923 24.0455C329.923 21.3182 330.418 18.9375 331.406 16.9034C332.406 14.8693 333.793 13.2898 335.565 12.1648C337.349 11.0398 339.423 10.4773 341.787 10.4773C344.151 10.4773 346.219 11.0398 347.992 12.1648C349.776 13.2898 351.162 14.8693 352.151 16.9034C353.151 18.9375 353.651 21.3182 353.651 24.0455C353.651 26.75 353.151 29.1136 352.151 31.1364C351.162 33.1591 349.776 34.733 347.992 35.858C346.219 36.983 344.151 37.5455 341.787 37.5455ZM341.787 33.9318C343.582 33.9318 345.06 33.4716 346.219 32.5511C347.378 31.6307 348.236 30.4205 348.793 28.9205C349.349 27.4205 349.628 25.7955 349.628 24.0455C349.628 22.2955 349.349 20.6648 348.793 19.1534C348.236 17.642 347.378 16.4205 346.219 15.4886C345.06 14.5568 343.582 14.0909 341.787 14.0909C339.991 14.0909 338.514 14.5568 337.355 15.4886C336.196 16.4205 335.338 17.642 334.781 19.1534C334.224 20.6648 333.946 22.2955 333.946 24.0455C333.946 25.7955 334.224 27.4205 334.781 28.9205C335.338 30.4205 336.196 31.6307 337.355 32.5511C338.514 33.4716 339.991 33.9318 341.787 33.9318Z"/>
<path d="M370.359 47.3636C368.416 47.3636 366.746 47.1136 365.348 46.6136C363.95 46.125 362.786 45.4773 361.854 44.6705C360.933 43.875 360.2 43.0227 359.655 42.1136L362.859 39.8636C363.223 40.3409 363.683 40.8864 364.24 41.5C364.797 42.125 365.558 42.6648 366.524 43.1193C367.501 43.5852 368.78 43.8182 370.359 43.8182C372.473 43.8182 374.217 43.3068 375.592 42.2841C376.967 41.2614 377.655 39.6591 377.655 37.4773V32.1591H377.314C377.018 32.6364 376.598 33.2273 376.053 33.9318C375.518 34.625 374.746 35.2443 373.734 35.7898C372.734 36.3239 371.382 36.5909 369.678 36.5909C367.564 36.5909 365.666 36.0909 363.984 35.0909C362.314 34.0909 360.99 32.6364 360.013 30.7273C359.047 28.8182 358.564 26.5 358.564 23.7727C358.564 21.0909 359.036 18.7557 359.979 16.767C360.922 14.767 362.234 13.2216 363.916 12.1307C365.598 11.0284 367.541 10.4773 369.746 10.4773C371.45 10.4773 372.803 10.7614 373.803 11.3295C374.814 11.8864 375.587 12.5227 376.121 13.2386C376.666 13.9432 377.087 14.5227 377.382 14.9773H377.791V10.8182H381.678V37.75C381.678 40 381.166 41.8295 380.143 43.2386C379.132 44.6591 377.768 45.6989 376.053 46.358C374.348 47.0284 372.45 47.3636 370.359 47.3636ZM370.223 32.9773C371.837 32.9773 373.2 32.608 374.314 31.8693C375.428 31.1307 376.274 30.0682 376.854 28.6818C377.433 27.2955 377.723 25.6364 377.723 23.7045C377.723 21.8182 377.439 20.1534 376.871 18.7102C376.303 17.267 375.462 16.1364 374.348 15.3182C373.234 14.5 371.859 14.0909 370.223 14.0909C368.518 14.0909 367.098 14.5227 365.962 15.3864C364.837 16.25 363.99 17.4091 363.422 18.8636C362.865 20.3182 362.587 21.9318 362.587 23.7045C362.587 25.5227 362.871 27.1307 363.439 28.5284C364.018 29.9148 364.871 31.0057 365.996 31.8011C367.132 32.5852 368.541 32.9773 370.223 32.9773Z"/>
<path d="M389.041 37V10.8182H393.064V37H389.041ZM391.087 6.45455C390.303 6.45455 389.626 6.1875 389.058 5.65341C388.501 5.11932 388.223 4.47727 388.223 3.72727C388.223 2.97727 388.501 2.33523 389.058 1.80114C389.626 1.26705 390.303 1 391.087 1C391.871 1 392.541 1.26705 393.098 1.80114C393.666 2.33523 393.95 2.97727 393.95 3.72727C393.95 4.47727 393.666 5.11932 393.098 5.65341C392.541 6.1875 391.871 6.45455 391.087 6.45455Z"/>
<path d="M411.409 37.5455C408.886 37.5455 406.71 36.9886 404.881 35.875C403.063 34.75 401.659 33.1818 400.67 31.1705C399.693 29.1477 399.205 26.7955 399.205 24.1136C399.205 21.4318 399.693 19.0682 400.67 17.0227C401.659 14.9659 403.034 13.3636 404.795 12.2159C406.568 11.0568 408.636 10.4773 411 10.4773C412.364 10.4773 413.71 10.7045 415.04 11.1591C416.369 11.6136 417.58 12.3523 418.67 13.375C419.761 14.3864 420.631 15.7273 421.278 17.3977C421.926 19.0682 422.25 21.125 422.25 23.5682V25.2727H402.068V21.7955H418.159C418.159 20.3182 417.864 19 417.273 17.8409C416.693 16.6818 415.864 15.767 414.784 15.0966C413.716 14.4261 412.455 14.0909 411 14.0909C409.398 14.0909 408.011 14.4886 406.841 15.2841C405.682 16.0682 404.79 17.0909 404.165 18.3523C403.54 19.6136 403.227 20.9659 403.227 22.4091V24.7273C403.227 26.7045 403.568 28.3807 404.25 29.7557C404.943 31.1193 405.903 32.1591 407.131 32.875C408.358 33.5795 409.784 33.9318 411.409 33.9318C412.466 33.9318 413.42 33.7841 414.273 33.4886C415.136 33.1818 415.881 32.7273 416.506 32.125C417.131 31.5114 417.614 30.75 417.955 29.8409L421.841 30.9318C421.432 32.25 420.744 33.4091 419.778 34.4091C418.813 35.3977 417.619 36.1705 416.199 36.7273C414.778 37.2727 413.182 37.5455 411.409 37.5455Z"/>
<path d="M446.915 16.6818L443.301 17.7045C443.074 17.1023 442.739 16.517 442.295 15.9489C441.864 15.3693 441.273 14.892 440.523 14.517C439.773 14.142 438.813 13.9545 437.642 13.9545C436.04 13.9545 434.705 14.3239 433.636 15.0625C432.58 15.7898 432.051 16.7159 432.051 17.8409C432.051 18.8409 432.415 19.6307 433.142 20.2102C433.869 20.7898 435.006 21.2727 436.551 21.6591L440.438 22.6136C442.778 23.1818 444.523 24.0511 445.67 25.2216C446.818 26.3807 447.392 27.875 447.392 29.7045C447.392 31.2045 446.96 32.5455 446.097 33.7273C445.244 34.9091 444.051 35.8409 442.517 36.5227C440.983 37.2045 439.199 37.5455 437.165 37.5455C434.494 37.5455 432.284 36.9659 430.534 35.8068C428.784 34.6477 427.676 32.9545 427.21 30.7273L431.028 29.7727C431.392 31.1818 432.08 32.2386 433.091 32.9432C434.114 33.6477 435.449 34 437.097 34C438.972 34 440.46 33.6023 441.563 32.8068C442.676 32 443.233 31.0341 443.233 29.9091C443.233 29 442.915 28.2386 442.278 27.625C441.642 27 440.665 26.5341 439.347 26.2273L434.983 25.2045C432.585 24.6364 430.824 23.7557 429.699 22.5625C428.585 21.358 428.028 19.8523 428.028 18.0455C428.028 16.5682 428.443 15.2614 429.273 14.125C430.114 12.9886 431.256 12.0966 432.699 11.4489C434.153 10.8011 435.801 10.4773 437.642 10.4773C440.233 10.4773 442.267 11.0455 443.744 12.1818C445.233 13.3182 446.29 14.8182 446.915 16.6818Z"/>
</mask>
<path d="M5.45455 2.09091V37H1.22728V2.09091H5.45455Z" stroke="white" stroke-width="2" mask="url(#path-1-outside-1_2_4)"/>
<path d="M17.4077 21.25V37H13.3849V10.8182H17.2713V14.9091H17.6122C18.2259 13.5795 19.1577 12.5114 20.4077 11.7045C21.6577 10.8864 23.2713 10.4773 25.2486 10.4773C27.0213 10.4773 28.5725 10.8409 29.902 11.5682C31.2315 12.2841 32.2656 13.375 33.0043 14.8409C33.7429 16.2955 34.1122 18.1364 34.1122 20.3636V37H30.0895V20.6364C30.0895 18.5795 29.5554 16.9773 28.4872 15.8295C27.419 14.6705 25.9531 14.0909 24.0895 14.0909C22.8054 14.0909 21.6577 14.3693 20.6463 14.9261C19.6463 15.483 18.8565 16.2955 18.277 17.3636C17.6975 18.4318 17.4077 19.7273 17.4077 21.25Z" stroke="white" stroke-width="2" mask="url(#path-1-outside-1_2_4)"/>
<path d="M60.0085 16.6818L56.3949 17.7045C56.1676 17.1023 55.8324 16.517 55.3892 15.9489C54.9574 15.3693 54.3665 14.892 53.6165 14.517C52.8665 14.142 51.9063 13.9545 50.7358 13.9545C49.1335 13.9545 47.7983 14.3239 46.7301 15.0625C45.6733 15.7898 45.1449 16.7159 45.1449 17.8409C45.1449 18.8409 45.5085 19.6307 46.2358 20.2102C46.9631 20.7898 48.0994 21.2727 49.6449 21.6591L53.5313 22.6136C55.8722 23.1818 57.6165 24.0511 58.7642 25.2216C59.9119 26.3807 60.4858 27.875 60.4858 29.7045C60.4858 31.2045 60.054 32.5455 59.1903 33.7273C58.3381 34.9091 57.1449 35.8409 55.6108 36.5227C54.0767 37.2045 52.2926 37.5455 50.2585 37.5455C47.5881 37.5455 45.3778 36.9659 43.6278 35.8068C41.8778 34.6477 40.7699 32.9545 40.304 30.7273L44.1222 29.7727C44.4858 31.1818 45.1733 32.2386 46.1847 32.9432C47.2074 33.6477 48.5426 34 50.1903 34C52.0653 34 53.554 33.6023 54.6563 32.8068C55.7699 32 56.3267 31.0341 56.3267 29.9091C56.3267 29 56.0085 28.2386 55.3722 27.625C54.7358 27 53.7585 26.5341 52.4403 26.2273L48.0767 25.2045C45.679 24.6364 43.9176 23.7557 42.7926 22.5625C41.679 21.358 41.1222 19.8523 41.1222 18.0455C41.1222 16.5682 41.5369 15.2614 42.3665 14.125C43.2074 12.9886 44.3494 12.0966 45.7926 11.4489C47.2472 10.8011 48.8949 10.4773 50.7358 10.4773C53.3267 10.4773 55.3608 11.0455 56.8381 12.1818C58.3267 13.3182 59.3835 14.8182 60.0085 16.6818Z" stroke="white" stroke-width="2" mask="url(#path-1-outside-1_2_4)"/>
<path d="M83.0412 26.2955V10.8182H87.0639V37H83.0412V32.5682H82.7685C82.1548 33.8977 81.2003 35.0284 79.9048 35.9602C78.6094 36.8807 76.973 37.3409 74.9957 37.3409C73.3594 37.3409 71.9048 36.983 70.6321 36.267C69.3594 35.5398 68.3594 34.4489 67.6321 32.9943C66.9048 31.5284 66.5412 29.6818 66.5412 27.4545V10.8182H70.5639V27.1818C70.5639 29.0909 71.098 30.6136 72.1662 31.75C73.2457 32.8864 74.6207 33.4545 76.2912 33.4545C77.2912 33.4545 78.3082 33.1989 79.3423 32.6875C80.3878 32.1761 81.2628 31.392 81.9673 30.3352C82.6832 29.2784 83.0412 27.9318 83.0412 26.2955Z" stroke="white" stroke-width="2" mask="url(#path-1-outside-1_2_4)"/>
<path d="M94.4318 37V10.8182H98.3182V14.7727H98.5909C99.0682 13.4773 99.9318 12.4261 101.182 11.6193C102.432 10.8125 103.841 10.4091 105.409 10.4091C105.705 10.4091 106.074 10.4148 106.517 10.4261C106.96 10.4375 107.295 10.4545 107.523 10.4773V14.5682C107.386 14.5341 107.074 14.483 106.585 14.4148C106.108 14.3352 105.602 14.2955 105.068 14.2955C103.795 14.2955 102.659 14.5625 101.659 15.0966C100.67 15.6193 99.8864 16.3466 99.3068 17.2784C98.7386 18.1989 98.4546 19.25 98.4546 20.4318V37H94.4318Z" stroke="white" stroke-width="2" mask="url(#path-1-outside-1_2_4)"/>
<path d="M122.472 37.5455C119.949 37.5455 117.773 36.9886 115.943 35.875C114.125 34.75 112.722 33.1818 111.733 31.1705C110.756 29.1477 110.267 26.7955 110.267 24.1136C110.267 21.4318 110.756 19.0682 111.733 17.0227C112.722 14.9659 114.097 13.3636 115.858 12.2159C117.631 11.0568 119.699 10.4773 122.063 10.4773C123.426 10.4773 124.773 10.7045 126.102 11.1591C127.432 11.6136 128.642 12.3523 129.733 13.375C130.824 14.3864 131.693 15.7273 132.341 17.3977C132.989 19.0682 133.312 21.125 133.312 23.5682V25.2727H113.131V21.7955H129.222C129.222 20.3182 128.926 19 128.335 17.8409C127.756 16.6818 126.926 15.767 125.847 15.0966C124.778 14.4261 123.517 14.0909 122.063 14.0909C120.46 14.0909 119.074 14.4886 117.903 15.2841C116.744 16.0682 115.852 17.0909 115.227 18.3523C114.602 19.6136 114.29 20.9659 114.29 22.4091V24.7273C114.29 26.7045 114.631 28.3807 115.313 29.7557C116.006 31.1193 116.966 32.1591 118.193 32.875C119.42 33.5795 120.847 33.9318 122.472 33.9318C123.528 33.9318 124.483 33.7841 125.335 33.4886C126.199 33.1818 126.943 32.7273 127.568 32.125C128.193 31.5114 128.676 30.75 129.017 29.8409L132.903 30.9318C132.494 32.25 131.807 33.4091 130.841 34.4091C129.875 35.3977 128.682 36.1705 127.261 36.7273C125.841 37.2727 124.244 37.5455 122.472 37.5455Z" stroke="white" stroke-width="2" mask="url(#path-1-outside-1_2_4)"/>
<path d="M151.568 5.84091V2.09091H177.75V5.84091H166.773V37H162.545V5.84091H151.568Z" stroke="white" stroke-width="2" mask="url(#path-1-outside-1_2_4)"/>
<path d="M190.909 37.5455C188.386 37.5455 186.21 36.9886 184.381 35.875C182.562 34.75 181.159 33.1818 180.17 31.1705C179.193 29.1477 178.705 26.7955 178.705 24.1136C178.705 21.4318 179.193 19.0682 180.17 17.0227C181.159 14.9659 182.534 13.3636 184.295 12.2159C186.068 11.0568 188.136 10.4773 190.5 10.4773C191.864 10.4773 193.21 10.7045 194.54 11.1591C195.869 11.6136 197.08 12.3523 198.17 13.375C199.261 14.3864 200.131 15.7273 200.778 17.3977C201.426 19.0682 201.75 21.125 201.75 23.5682V25.2727H181.568V21.7955H197.659C197.659 20.3182 197.364 19 196.773 17.8409C196.193 16.6818 195.364 15.767 194.284 15.0966C193.216 14.4261 191.955 14.0909 190.5 14.0909C188.898 14.0909 187.511 14.4886 186.341 15.2841C185.182 16.0682 184.29 17.0909 183.665 18.3523C183.04 19.6136 182.727 20.9659 182.727 22.4091V24.7273C182.727 26.7045 183.068 28.3807 183.75 29.7557C184.443 31.1193 185.403 32.1591 186.631 32.875C187.858 33.5795 189.284 33.9318 190.909 33.9318C191.966 33.9318 192.92 33.7841 193.773 33.4886C194.636 33.1818 195.381 32.7273 196.006 32.125C196.631 31.5114 197.114 30.75 197.455 29.8409L201.341 30.9318C200.932 32.25 200.244 33.4091 199.278 34.4091C198.313 35.3977 197.119 36.1705 195.699 36.7273C194.278 37.2727 192.682 37.5455 190.909 37.5455Z" stroke="white" stroke-width="2" mask="url(#path-1-outside-1_2_4)"/>
<path d="M218.506 37.5455C216.051 37.5455 213.938 36.9659 212.165 35.8068C210.392 34.6477 209.028 33.0511 208.074 31.017C207.119 28.983 206.642 26.6591 206.642 24.0455C206.642 21.3864 207.131 19.0398 208.108 17.0057C209.097 14.9602 210.472 13.3636 212.233 12.2159C214.006 11.0568 216.074 10.4773 218.438 10.4773C220.278 10.4773 221.938 10.8182 223.415 11.5C224.892 12.1818 226.102 13.1364 227.045 14.3636C227.989 15.5909 228.574 17.0227 228.801 18.6591H224.778C224.472 17.4659 223.79 16.4091 222.733 15.4886C221.688 14.5568 220.278 14.0909 218.506 14.0909C216.937 14.0909 215.562 14.5 214.381 15.3182C213.21 16.125 212.295 17.267 211.636 18.7443C210.989 20.2102 210.665 21.9318 210.665 23.9091C210.665 25.9318 210.983 27.6932 211.619 29.1932C212.267 30.6932 213.176 31.858 214.347 32.6875C215.528 33.517 216.915 33.9318 218.506 33.9318C219.551 33.9318 220.5 33.75 221.352 33.3864C222.205 33.0227 222.926 32.5 223.517 31.8182C224.108 31.1364 224.528 30.3182 224.778 29.3636H228.801C228.574 30.9091 228.011 32.3011 227.114 33.5398C226.227 34.767 225.051 35.7443 223.585 36.4716C222.131 37.1875 220.437 37.5455 218.506 37.5455Z" stroke="white" stroke-width="2" mask="url(#path-1-outside-1_2_4)"/>
<path d="M238.705 21.25V37H234.682V2.09091H238.705V14.9091H239.045C239.659 13.5568 240.58 12.483 241.807 11.6875C243.045 10.8807 244.693 10.4773 246.75 10.4773C248.534 10.4773 250.097 10.8352 251.438 11.5511C252.778 12.2557 253.818 13.3409 254.557 14.8068C255.307 16.2614 255.682 18.1136 255.682 20.3636V37H251.659V20.6364C251.659 18.5568 251.119 16.9489 250.04 15.8125C248.972 14.6648 247.489 14.0909 245.591 14.0909C244.273 14.0909 243.091 14.3693 242.045 14.9261C241.011 15.483 240.193 16.2955 239.591 17.3636C239 18.4318 238.705 19.7273 238.705 21.25Z" stroke="white" stroke-width="2" mask="url(#path-1-outside-1_2_4)"/>
<path d="M267.064 21.25V37H263.041V10.8182H266.928V14.9091H267.268C267.882 13.5795 268.814 12.5114 270.064 11.7045C271.314 10.8864 272.928 10.4773 274.905 10.4773C276.678 10.4773 278.229 10.8409 279.558 11.5682C280.888 12.2841 281.922 13.375 282.661 14.8409C283.399 16.2955 283.768 18.1364 283.768 20.3636V37H279.746V20.6364C279.746 18.5795 279.212 16.9773 278.143 15.8295C277.075 14.6705 275.609 14.0909 273.746 14.0909C272.462 14.0909 271.314 14.3693 270.303 14.9261C269.303 15.483 268.513 16.2955 267.933 17.3636C267.354 18.4318 267.064 19.7273 267.064 21.25Z" stroke="white" stroke-width="2" mask="url(#path-1-outside-1_2_4)"/>
<path d="M301.756 37.5455C299.392 37.5455 297.318 36.983 295.534 35.858C293.761 34.733 292.375 33.1591 291.375 31.1364C290.386 29.1136 289.892 26.75 289.892 24.0455C289.892 21.3182 290.386 18.9375 291.375 16.9034C292.375 14.8693 293.761 13.2898 295.534 12.1648C297.318 11.0398 299.392 10.4773 301.756 10.4773C304.119 10.4773 306.188 11.0398 307.96 12.1648C309.744 13.2898 311.131 14.8693 312.119 16.9034C313.119 18.9375 313.619 21.3182 313.619 24.0455C313.619 26.75 313.119 29.1136 312.119 31.1364C311.131 33.1591 309.744 34.733 307.96 35.858C306.188 36.983 304.119 37.5455 301.756 37.5455ZM301.756 33.9318C303.551 33.9318 305.028 33.4716 306.188 32.5511C307.347 31.6307 308.205 30.4205 308.761 28.9205C309.318 27.4205 309.597 25.7955 309.597 24.0455C309.597 22.2955 309.318 20.6648 308.761 19.1534C308.205 17.642 307.347 16.4205 306.188 15.4886C305.028 14.5568 303.551 14.0909 301.756 14.0909C299.96 14.0909 298.483 14.5568 297.324 15.4886C296.165 16.4205 295.307 17.642 294.75 19.1534C294.193 20.6648 293.915 22.2955 293.915 24.0455C293.915 25.7955 294.193 27.4205 294.75 28.9205C295.307 30.4205 296.165 31.6307 297.324 32.5511C298.483 33.4716 299.96 33.9318 301.756 33.9318Z" stroke="white" stroke-width="2" mask="url(#path-1-outside-1_2_4)"/>
<path d="M323.783 2.09091V37H319.76V2.09091H323.783Z" stroke="white" stroke-width="2" mask="url(#path-1-outside-1_2_4)"/>
<path d="M341.787 37.5455C339.423 37.5455 337.349 36.983 335.565 35.858C333.793 34.733 332.406 33.1591 331.406 31.1364C330.418 29.1136 329.923 26.75 329.923 24.0455C329.923 21.3182 330.418 18.9375 331.406 16.9034C332.406 14.8693 333.793 13.2898 335.565 12.1648C337.349 11.0398 339.423 10.4773 341.787 10.4773C344.151 10.4773 346.219 11.0398 347.992 12.1648C349.776 13.2898 351.162 14.8693 352.151 16.9034C353.151 18.9375 353.651 21.3182 353.651 24.0455C353.651 26.75 353.151 29.1136 352.151 31.1364C351.162 33.1591 349.776 34.733 347.992 35.858C346.219 36.983 344.151 37.5455 341.787 37.5455ZM341.787 33.9318C343.582 33.9318 345.06 33.4716 346.219 32.5511C347.378 31.6307 348.236 30.4205 348.793 28.9205C349.349 27.4205 349.628 25.7955 349.628 24.0455C349.628 22.2955 349.349 20.6648 348.793 19.1534C348.236 17.642 347.378 16.4205 346.219 15.4886C345.06 14.5568 343.582 14.0909 341.787 14.0909C339.991 14.0909 338.514 14.5568 337.355 15.4886C336.196 16.4205 335.338 17.642 334.781 19.1534C334.224 20.6648 333.946 22.2955 333.946 24.0455C333.946 25.7955 334.224 27.4205 334.781 28.9205C335.338 30.4205 336.196 31.6307 337.355 32.5511C338.514 33.4716 339.991 33.9318 341.787 33.9318Z" stroke="white" stroke-width="2" mask="url(#path-1-outside-1_2_4)"/>
<path d="M370.359 47.3636C368.416 47.3636 366.746 47.1136 365.348 46.6136C363.95 46.125 362.786 45.4773 361.854 44.6705C360.933 43.875 360.2 43.0227 359.655 42.1136L362.859 39.8636C363.223 40.3409 363.683 40.8864 364.24 41.5C364.797 42.125 365.558 42.6648 366.524 43.1193C367.501 43.5852 368.78 43.8182 370.359 43.8182C372.473 43.8182 374.217 43.3068 375.592 42.2841C376.967 41.2614 377.655 39.6591 377.655 37.4773V32.1591H377.314C377.018 32.6364 376.598 33.2273 376.053 33.9318C375.518 34.625 374.746 35.2443 373.734 35.7898C372.734 36.3239 371.382 36.5909 369.678 36.5909C367.564 36.5909 365.666 36.0909 363.984 35.0909C362.314 34.0909 360.99 32.6364 360.013 30.7273C359.047 28.8182 358.564 26.5 358.564 23.7727C358.564 21.0909 359.036 18.7557 359.979 16.767C360.922 14.767 362.234 13.2216 363.916 12.1307C365.598 11.0284 367.541 10.4773 369.746 10.4773C371.45 10.4773 372.803 10.7614 373.803 11.3295C374.814 11.8864 375.587 12.5227 376.121 13.2386C376.666 13.9432 377.087 14.5227 377.382 14.9773H377.791V10.8182H381.678V37.75C381.678 40 381.166 41.8295 380.143 43.2386C379.132 44.6591 377.768 45.6989 376.053 46.358C374.348 47.0284 372.45 47.3636 370.359 47.3636ZM370.223 32.9773C371.837 32.9773 373.2 32.608 374.314 31.8693C375.428 31.1307 376.274 30.0682 376.854 28.6818C377.433 27.2955 377.723 25.6364 377.723 23.7045C377.723 21.8182 377.439 20.1534 376.871 18.7102C376.303 17.267 375.462 16.1364 374.348 15.3182C373.234 14.5 371.859 14.0909 370.223 14.0909C368.518 14.0909 367.098 14.5227 365.962 15.3864C364.837 16.25 363.99 17.4091 363.422 18.8636C362.865 20.3182 362.587 21.9318 362.587 23.7045C362.587 25.5227 362.871 27.1307 363.439 28.5284C364.018 29.9148 364.871 31.0057 365.996 31.8011C367.132 32.5852 368.541 32.9773 370.223 32.9773Z" stroke="white" stroke-width="2" mask="url(#path-1-outside-1_2_4)"/>
<path d="M389.041 37V10.8182H393.064V37H389.041ZM391.087 6.45455C390.303 6.45455 389.626 6.1875 389.058 5.65341C388.501 5.11932 388.223 4.47727 388.223 3.72727C388.223 2.97727 388.501 2.33523 389.058 1.80114C389.626 1.26705 390.303 1 391.087 1C391.871 1 392.541 1.26705 393.098 1.80114C393.666 2.33523 393.95 2.97727 393.95 3.72727C393.95 4.47727 393.666 5.11932 393.098 5.65341C392.541 6.1875 391.871 6.45455 391.087 6.45455Z" stroke="white" stroke-width="2" mask="url(#path-1-outside-1_2_4)"/>
<path d="M411.409 37.5455C408.886 37.5455 406.71 36.9886 404.881 35.875C403.063 34.75 401.659 33.1818 400.67 31.1705C399.693 29.1477 399.205 26.7955 399.205 24.1136C399.205 21.4318 399.693 19.0682 400.67 17.0227C401.659 14.9659 403.034 13.3636 404.795 12.2159C406.568 11.0568 408.636 10.4773 411 10.4773C412.364 10.4773 413.71 10.7045 415.04 11.1591C416.369 11.6136 417.58 12.3523 418.67 13.375C419.761 14.3864 420.631 15.7273 421.278 17.3977C421.926 19.0682 422.25 21.125 422.25 23.5682V25.2727H402.068V21.7955H418.159C418.159 20.3182 417.864 19 417.273 17.8409C416.693 16.6818 415.864 15.767 414.784 15.0966C413.716 14.4261 412.455 14.0909 411 14.0909C409.398 14.0909 408.011 14.4886 406.841 15.2841C405.682 16.0682 404.79 17.0909 404.165 18.3523C403.54 19.6136 403.227 20.9659 403.227 22.4091V24.7273C403.227 26.7045 403.568 28.3807 404.25 29.7557C404.943 31.1193 405.903 32.1591 407.131 32.875C408.358 33.5795 409.784 33.9318 411.409 33.9318C412.466 33.9318 413.42 33.7841 414.273 33.4886C415.136 33.1818 415.881 32.7273 416.506 32.125C417.131 31.5114 417.614 30.75 417.955 29.8409L421.841 30.9318C421.432 32.25 420.744 33.4091 419.778 34.4091C418.813 35.3977 417.619 36.1705 416.199 36.7273C414.778 37.2727 413.182 37.5455 411.409 37.5455Z" stroke="white" stroke-width="2" mask="url(#path-1-outside-1_2_4)"/>
<path d="M446.915 16.6818L443.301 17.7045C443.074 17.1023 442.739 16.517 442.295 15.9489C441.864 15.3693 441.273 14.892 440.523 14.517C439.773 14.142 438.813 13.9545 437.642 13.9545C436.04 13.9545 434.705 14.3239 433.636 15.0625C432.58 15.7898 432.051 16.7159 432.051 17.8409C432.051 18.8409 432.415 19.6307 433.142 20.2102C433.869 20.7898 435.006 21.2727 436.551 21.6591L440.438 22.6136C442.778 23.1818 444.523 24.0511 445.67 25.2216C446.818 26.3807 447.392 27.875 447.392 29.7045C447.392 31.2045 446.96 32.5455 446.097 33.7273C445.244 34.9091 444.051 35.8409 442.517 36.5227C440.983 37.2045 439.199 37.5455 437.165 37.5455C434.494 37.5455 432.284 36.9659 430.534 35.8068C428.784 34.6477 427.676 32.9545 427.21 30.7273L431.028 29.7727C431.392 31.1818 432.08 32.2386 433.091 32.9432C434.114 33.6477 435.449 34 437.097 34C438.972 34 440.46 33.6023 441.563 32.8068C442.676 32 443.233 31.0341 443.233 29.9091C443.233 29 442.915 28.2386 442.278 27.625C441.642 27 440.665 26.5341 439.347 26.2273L434.983 25.2045C432.585 24.6364 430.824 23.7557 429.699 22.5625C428.585 21.358 428.028 19.8523 428.028 18.0455C428.028 16.5682 428.443 15.2614 429.273 14.125C430.114 12.9886 431.256 12.0966 432.699 11.4489C434.153 10.8011 435.801 10.4773 437.642 10.4773C440.233 10.4773 442.267 11.0455 443.744 12.1818C445.233 13.3182 446.29 14.8182 446.915 16.6818Z" stroke="white" stroke-width="2" mask="url(#path-1-outside-1_2_4)"/>
</svg>
